<?xml version="1.0" encoding="utf-8"?>
<!-- Generator: Adobe Illustrator 23.0.0, SVG Export Plug-In . SVG Version: 6.00 Build 0)  -->
<svg version="1.1" id="Layer_1" xmlns="http://www.w3.org/2000/svg" xmlns:xlink="http://www.w3.org/1999/xlink" x="0px" y="0px"
	 viewBox="0 0 1335.8 532.5" style="enable-background:new 0 0 1335.8 532.5;" xml:space="preserve">
<style type="text/css">
	.st0{fill:#A6ADC4;}
</style>
<title>Asset 5</title>
<polygon class="st0" points="0.4,532.5 0.4,517.3 13.2,517.3 13.2,506.6 20.5,506.6 20.5,500.8 27.5,500.8 27.5,506.2 40,506.2 
	40,510.7 46.7,510.7 46.7,520.2 55.2,520.2 55.2,509.5 64.9,509.5 64.9,484.8 72.2,484.8 72.2,480.7 79.9,480.7 79.9,485.6 
	82.9,485.6 82.9,475.8 92.3,475.8 92.3,481.1 97.5,481.1 97.5,510.7 103,510.7 103,516.5 109.7,516.5 109.7,472.9 117.4,472.9 
	117.4,467.9 135.2,467.9 135.2,472.9 144.4,472.9 144.4,515.2 180.9,515.2 180.9,454.4 185.1,454.4 185.1,448.6 195.2,448.6 
	195.2,453.5 201.9,453.5 201.9,514 208.3,514 208.3,459.7 212.5,459.7 212.5,453.5 225,453.5 225,458.1 230.2,458.1 230.2,490.6 
	235.7,490.6 235.7,484 241.4,484 241.4,490.6 246.6,490.6 246.6,479.9 275.5,479.9 275.5,512.4 284.7,512.4 284.7,490.6 
	312.7,490.6 312.7,510.3 327.3,510.3 327.3,474.1 332.1,474.1 332.1,467.9 342.8,467.9 342.8,473.7 354,473.7 354,479.9 
	363.8,479.9 363.8,511.5 370.2,511.5 370.2,488.5 374.1,488.5 374.1,482.7 385.4,482.7 385.4,488.5 392.4,488.5 392.4,506.6 
	417.9,506.6 417.9,438.3 421,438.3 421,421.5 425.9,421.5 425.9,411.2 454.2,411.2 454.2,421.1 462.7,421.1 462.7,510.7 
	471.5,510.7 471.5,469.6 475.8,469.6 475.8,457.7 481.9,457.7 481.9,463.4 489.2,463.4 489.2,467.5 495.6,467.5 495.6,511.1 
	500.7,511.1 500.7,502.1 508,502.1 508,456.4 511.1,456.4 514,452.5 524.5,452.5 524.5,457.2 529.3,457.2 529.3,508.2 554.3,508.2 
	554.3,433.8 566.8,433.8 566.8,440 569.8,440 569.8,435.9 588.7,435.9 588.7,441.6 594.5,441.6 594.5,507.8 601.8,507.8 
	601.8,486.9 607.5,486.9 607.5,481.1 615.2,481.1 615.2,486.9 623.1,486.9 623.1,507 634.6,507 634.6,456.8 638.6,456.8 
	638.6,439.6 664.4,439.6 664.4,447 671.1,447 671.1,479.5 688.8,479.5 688.8,362.3 690.9,362.3 690.9,355.3 706.4,355.3 
	706.4,358.6 715.6,358.6 715.6,482.3 738.7,482.3 738.7,449.4 756.3,449.4 756.3,422.7 781.9,422.7 781.9,431.3 788,431.3 
	788,452.3 795.3,452.3 795.3,445.3 812,445.3 812,452.7 819.6,452.7 819.6,466.7 824.2,466.7 824.2,415.7 828.8,415.7 828.8,405.8 
	837.6,405.8 849.2,405.8 849.2,410.8 858.9,410.8 858.9,440.4 869.3,440.4 869.3,433.4 880.5,433.4 880.5,438.3 895.1,438.3 
	895.1,449 900.3,449 900.3,443.9 905.2,443.9 905.2,438.3 916.7,438.3 916.7,443.9 924.6,443.9 924.6,447.4 928.3,447.4 
	928.3,458.9 934.1,458.9 934.1,451.5 945.6,451.5 945.6,446.6 950.8,446.6 950.8,443.9 962.1,443.9 962.1,449.4 970,449.4 
	970,454.8 979.4,454.8 979.4,461.4 984,461.4 984,495.9 986.1,495.9 986.1,486.4 990.1,486.4 990.1,456.8 992.5,456.8 992.5,451.9 
	1001,451.9 1001,456.4 1003.8,456.4 1003.8,482.7 1007.7,482.7 1007.7,443.9 1030.2,443.9 1030.2,454.4 1033.1,454.4 1033.1,466.3 
	1034.8,466.3 1034.8,498 1041.2,498 1041.2,493.4 1043.9,493.4 1043.9,482.3 1046.4,482.3 1046.4,438.7 1063.4,438.7 1063.4,465.1 
	1066.1,465.1 1066.1,482.7 1073.8,482.7 1073.8,499.2 1078.6,499.2 1078.6,490.6 1086.8,490.6 1086.8,485.2 1114.5,485.2 
	1114.5,479.5 1121.5,479.5 1121.5,486 1128.8,486 1128.8,501.2 1134.9,501.2 1134.9,487.3 1139.2,487.3 1139.2,465.1 1143.4,465.1 
	1143.4,456 1148.3,456 1151.2,452.1 1160.2,452.1 1160.2,405.4 1178.4,405.4 1178.4,452.7 1188.5,452.7 1188.5,488.9 1194.3,488.9 
	1194.3,443.9 1210.1,443.9 1210.1,448.6 1225.3,448.6 1225.3,465.1 1232.6,465.1 1232.6,452.7 1243.9,452.7 1243.9,446.1 
	1253.9,446.1 1253.9,486.4 1269.4,486.4 1269.4,440.4 1272.2,440.4 1272.2,436.7 1288.3,436.7 1288.3,443.9 1306.3,443.9 
	1306.3,490.6 1314.8,490.6 1314.8,504.5 1324.2,504.5 1324.2,487.7 1329.1,487.7 1329.1,480.7 1335.8,480.7 1335.8,532.5 "/>
</svg>
