<svg id="Layer_1" data-name="Layer 1" xmlns="http://www.w3.org/2000/svg" viewBox="0 0 256 256"><defs><style>.cls-1{fill:#45b161;}.cls-2{fill:#40a057;}</style></defs><title>Artboard 1ldpi</title><path class="cls-1" d="M121.52,27V242a107.53,107.53,0,0,1,0-215Z"/><path class="cls-1" d="M242,121.52A107.49,107.49,0,0,1,134.48,229.05V14A107.52,107.52,0,0,1,242,121.52Z"/><path class="cls-2" d="M210.59,165.78h-1.45a6.89,6.89,0,0,0,.11-1.21,8,8,0,0,0-3.79-6.78,12.4,12.4,0,0,1-3.56-3.32,1,1,0,0,0,.29-.67.92.92,0,0,0-.55-.84l-.24-3.62h-.27L200.9,153a.9.9,0,0,0-.55.84.92.92,0,0,0,.29.67,12.44,12.44,0,0,1-3.57,3.32,7.89,7.89,0,0,0-3.68,8H192a1.06,1.06,0,0,0-1.06,1.07v.61a1.06,1.06,0,0,0,1.06,1.07h.21v41.79h-6.32l-.3-16.13h1.65V192h-1.7l-.32-16.9h1.15V173h-1.19l-.29-15.46h1.31v-1.26h-.77v-.42h-.78v-5.63h.78v-.53h-1.23a3.41,3.41,0,0,0,.17-1.06,3.59,3.59,0,0,0-1.71-3,5.46,5.46,0,0,1-1.6-1.5.42.42,0,0,0,.13-.3.42.42,0,0,0-.25-.38l-.09-1.44.19,0a1.08,1.08,0,0,0,1.06-.94.9.9,0,0,1-1.71-.39.88.88,0,0,1,.51-.81,1.07,1.07,0,0,0-.2,2.08l-.09,1.48a.41.41,0,0,0-.25.38.42.42,0,0,0,.13.3,5.49,5.49,0,0,1-1.61,1.5,3.58,3.58,0,0,0-1.7,3,3.73,3.73,0,0,0,.16,1.06H176.1v.53h.75v5.63h-.75v.42h-.78v1.26h1.32l-.3,15.46h-1.19v2.17h1.15L176,192h-1.7v2.16h1.66l-.31,16.13h-4.41V184.7h.14a.59.59,0,0,0,.59-.59v-.34a.59.59,0,0,0-.59-.59h-.8a3.68,3.68,0,0,0,.06-.66,4.39,4.39,0,0,0-2.09-3.74,6.85,6.85,0,0,1-2-1.83.51.51,0,0,0,.16-.37.52.52,0,0,0-.31-.47l-.12-2h-.15l-.13,2a.52.52,0,0,0-.31.47.55.55,0,0,0,.16.37,6.85,6.85,0,0,1-2,1.83,4.39,4.39,0,0,0-2.09,3.74,3.68,3.68,0,0,0,.06.66h-.78a.6.6,0,0,0-.59.59v.34a.6.6,0,0,0,.59.59h.12v10.07h-3a21.13,21.13,0,0,0-9.07-24.16,33,33,0,0,1-9.42-8.78,2.42,2.42,0,0,0,.77-1.76,2.44,2.44,0,0,0-1.45-2.23l-.55-8.47a5.8,5.8,0,0,0,1.11.1,6.3,6.3,0,0,0,6.25-5.47,5.29,5.29,0,1,1-7.06-7.06,6.33,6.33,0,0,0-4.31,2.57v7.33a6.3,6.3,0,0,0,3.16,2.32l-.56,8.68a2.44,2.44,0,0,0-1.45,2.23,2.4,2.4,0,0,0,.77,1.76,29.82,29.82,0,0,1-1.92,2.41v64.81a106.93,106.93,0,0,0,58-16.94,108.05,108.05,0,0,0,17.91-14.38v-29.2h.25a1.07,1.07,0,0,0,1.07-1.07v-.61A1.07,1.07,0,0,0,210.59,165.78Zm-48.73,27.27v-4.58a3.12,3.12,0,0,1,.81-2.44,3.09,3.09,0,0,1,.81,2.44v4.58Zm2.31,0V188a2.13,2.13,0,1,1,4.1,0v5.07Zm6.42,0H169v-4.58a3.09,3.09,0,0,1,.81-2.44,3.09,3.09,0,0,1,.81,2.44Zm7.68-37.23h-.75v-4.61a.29.29,0,0,1,.3-.3H178a.29.29,0,0,1,.3.3Zm1.43,0h-.76v-4.61a.3.3,0,0,1,.3-.3h.15a.3.3,0,0,1,.31.3Zm1.42,0h-.76v-4.61a.3.3,0,0,1,.31-.3h.14a.3.3,0,0,1,.31.3Zm1.42,0h-.75v-4.61a.29.29,0,0,1,.3-.3h.15a.29.29,0,0,1,.3.3Zm1.43,0h-.76v-4.61a.29.29,0,0,1,.3-.3h.15a.3.3,0,0,1,.31.3Zm9.4,27.85v-8.3c0-2.12.62-3.89,1.46-4.43.85.54,1.47,2.31,1.47,4.43v8.3Zm4.18,0v-9.18a5.08,5.08,0,0,1,3.72-4.9,5.09,5.09,0,0,1,3.72,4.9v9.18Zm11.64,0h-2.93v-8.3c0-2.12.62-3.89,1.47-4.43.84.54,1.46,2.31,1.46,4.43ZM117,188.53a21.09,21.09,0,0,0,.94,6.24h-5c0-.33,0-.66,0-1a13.61,13.61,0,0,0-12-13.52l-.86-2.62s-.09,0-.2-.07l-.47-7.26a.06.06,0,0,0-.12,0l-.47,7.26c-.11,0-.19,0-.2.07l-.86,2.62A13.61,13.61,0,0,0,86.29,197.8H81.65v2h2.16v10.47H80.5l-.21-11.06h1.28v-1.69H80.26L80,184.43h.89v-1.68H80l-.23-12h1v-1h-.59v-.33h-.61V165h.61v-.42h-1A2.79,2.79,0,0,0,78,161.43a4.46,4.46,0,0,1-1.24-1.17.33.33,0,0,0,.1-.23.32.32,0,0,0-.19-.29l-.07-1.13.14,0a.83.83,0,0,0,.83-.73.69.69,0,0,1-.63.4.7.7,0,0,1-.7-.7.69.69,0,0,1,.4-.63.83.83,0,0,0-.16,1.61l-.07,1.16a.32.32,0,0,0-.19.29.33.33,0,0,0,.1.23,4.36,4.36,0,0,1-1.25,1.17,2.8,2.8,0,0,0-1.33,2.37,2.76,2.76,0,0,0,.13.82h-.95V165h.58v4.38h-.58v.33h-.6v1h1l-.23,12h-.93v1.68h.9l-.25,13.14H71.52v1.69H72.8l-.21,11.06H64V188.61h.15a.64.64,0,0,0,.64-.64v-.37a.64.64,0,0,0-.64-.64h-.87a4.37,4.37,0,0,0,.06-.72,4.79,4.79,0,0,0-2.27-4.07,7.48,7.48,0,0,1-2.13-2,.57.57,0,0,0,.17-.4.55.55,0,0,0-.33-.5l-.14-2.17h-.16l-.14,2.17a.54.54,0,0,0-.33.5.57.57,0,0,0,.17.4,7.36,7.36,0,0,1-2.13,2,4.78,4.78,0,0,0-2.28,4.07,4.39,4.39,0,0,0,.07.72H53a.64.64,0,0,0-.64.64V188a.64.64,0,0,0,.64.64h.13v21.71h-6.8v1A107.17,107.17,0,0,0,121.52,242V175.48A20.87,20.87,0,0,0,117,188.53Zm-63.12,9.15v-5a3.39,3.39,0,0,1,.88-2.66,3.39,3.39,0,0,1,.88,2.66v5Zm2.51,0v-5.5a3,3,0,0,1,2.23-2.93,3.05,3.05,0,0,1,2.23,2.93v5.5Zm7,0H61.58v-5a3.39,3.39,0,0,1,.88-2.66,3.39,3.39,0,0,1,.88,2.66Zm11.28-28.26H74v-3.59a.23.23,0,0,1,.24-.23h.11a.23.23,0,0,1,.24.23Zm1.11,0h-.59v-3.59a.23.23,0,0,1,.23-.23h.12a.23.23,0,0,1,.24.23Zm1.1,0h-.59v-3.59a.23.23,0,0,1,.24-.23h.12a.23.23,0,0,1,.23.23Zm1.11,0h-.59v-3.59a.23.23,0,0,1,.24-.23h.11a.23.23,0,0,1,.24.23Zm1.11,0h-.59v-3.59a.23.23,0,0,1,.23-.23h.12a.23.23,0,0,1,.24.23Z"/></svg>