<svg id="Layer_1" data-name="Layer 1" xmlns="http://www.w3.org/2000/svg" xmlns:xlink="http://www.w3.org/1999/xlink" viewBox="0 0 256 256"><defs><style>.cls-1{fill:#1273f1;}.cls-2{fill:#1e84d6;}.cls-3{fill:#06c;}.cls-4{fill:#41b883;}.cls-5{fill:url(#linear-gradient);}.cls-6{fill:#1c7ba5;}</style><linearGradient id="linear-gradient" x1="13.11" y1="131.87" x2="241.79" y2="131.87" gradientUnits="userSpaceOnUse"><stop offset="0" stop-color="#2f9eac"/><stop offset="1" stop-color="#41b883"/></linearGradient></defs><title>Artboard 1 copy 5ldpi</title><path class="cls-1" d="M101,111.86l-.38.39L88.18,124.72,33.6,116.39l1.8-11.79A78.83,78.83,0,0,1,89.61,41.35q3.31-1.07,6.72-1.81Z"/><path class="cls-2" d="M179.63,33.27,159.92,53,104,108.9l-3,3-4.7-72.32-1.69-26L94.47,11l11.91-.77a105.86,105.86,0,0,1,67,18.38Q176.55,30.83,179.63,33.27Z"/><path class="cls-3" d="M101,111.86l-.38.39-10.74-69-.3-1.91q3.31-1.07,6.72-1.81Z"/><path class="cls-4" d="M210.47,202.39c-.7.81-1.42,1.62-2.14,2.41-.36.41-.73.81-1.12,1.21q-1.07,1.11-2.16,2.22A128.86,128.86,0,0,1,113.29,246a128.84,128.84,0,0,1-91.75-37.77l-1.77-1.78-6.66-6.66,75.07-75.07L101,111.86l3-3L159.92,53l19.71-19.71,15.54-15.54,1.89,1.65a128.82,128.82,0,0,1,44.37,88.75A128.81,128.81,0,0,1,210.47,202.39Z"/><path class="cls-5" d="M210.47,202.39c-.7.81-1.42,1.62-2.14,2.41-.36.41-.73.81-1.12,1.21q-1.07,1.11-2.16,2.22A128.86,128.86,0,0,1,113.29,246a128.84,128.84,0,0,1-91.75-37.77l-1.77-1.78-6.66-6.66,75.07-75.07L101,111.86l3-3L159.92,53l19.71-19.71,15.54-15.54,1.89,1.65a128.82,128.82,0,0,1,44.37,88.75A128.81,128.81,0,0,1,210.47,202.39Z"/><path class="cls-6" d="M179.63,33.27,159.92,53,104,108.9l50.12-58,18.22-21.09,1-1.15Q176.55,30.83,179.63,33.27Z"/></svg>